<svg width="49" height="48" viewBox="0 0 49 48" fill="none" xmlns="http://www.w3.org/2000/svg">
<g clip-path="url(#clip0_9_367)">
<rect x="7" y="7" width="36" height="33" fill="white"/>
<path d="M24.2278 16.2406L24.2278 16.2406C24.5628 15.9125 24.7519 15.4663 24.7519 15C24.7519 14.5337 24.5628 14.0875 24.2278 13.7594C23.893 13.4315 23.44 13.2481 22.9688 13.2481C22.4975 13.2481 22.0445 13.4315 21.7097 13.7594L12.5224 22.7592C12.3563 22.9215 12.2242 23.1146 12.134 23.3276C12.0438 23.5406 11.9973 23.7691 11.9973 24C11.9973 24.2309 12.0438 24.4594 12.134 24.6724C12.2242 24.8854 12.3563 25.0785 12.5224 25.2408L21.7097 34.2406C22.0445 34.5685 22.4975 34.7519 22.9688 34.7519C23.44 34.7519 23.893 34.5685 24.2278 34.2406C24.5628 33.9125 24.7519 33.4663 24.7519 33C24.7519 32.5337 24.5628 32.0875 24.2278 31.7594L24.2278 31.7594L18.0904 25.75H35.2188C35.6895 25.75 36.142 25.5669 36.4765 25.2393C36.8111 24.9115 37 24.4658 37 24C37 23.5342 36.8111 23.0885 36.4765 22.7608C36.142 22.4331 35.6895 22.25 35.2188 22.25H18.0904L24.2278 16.2406ZM48.75 42C48.75 43.5233 48.1323 44.9853 47.0311 46.064C45.9297 47.143 44.4348 47.75 42.875 47.75H6.125C4.56521 47.75 3.07031 47.143 1.96892 46.064C0.867692 44.9853 0.25 43.5233 0.25 42V6C0.25 4.47669 0.867692 3.0147 1.96892 1.93595C3.07031 0.857028 4.56521 0.25 6.125 0.25H42.875C44.4348 0.25 45.9297 0.857028 47.0311 1.93595C48.1323 3.0147 48.75 4.47669 48.75 6V42Z" fill="#303030" stroke="#F1F1F1" stroke-width="0.5"/>
</g>
<defs>
<clipPath id="clip0_9_367">
<rect width="49" height="48" fill="white"/>
</clipPath>
</defs>
</svg>
