<svg width="48" height="48" viewBox="0 0 48 48" fill="none" xmlns="http://www.w3.org/2000/svg">
<g clip-path="url(#clip0_1605_416)">
<rect x="8" y="8" width="32" height="31" fill="#FEFEFE"/>
<path d="M21.075 33.9L20.9071 34.0853C21.3351 34.4731 21.8959 34.6814 22.4733 34.6672C23.0507 34.653 23.6005 34.4173 24.0089 34.0089C24.4173 33.6005 24.653 33.0507 24.6672 32.4733C24.6814 31.8959 24.4731 31.3351 24.0853 30.9071L24.0855 30.9069L24.0768 30.8982L19.4286 26.25L34 26.25C34.5967 26.25 35.169 26.0129 35.591 25.591C36.0129 25.169 36.25 24.5967 36.25 24C36.25 23.4033 36.0129 22.831 35.591 22.409C35.169 21.9871 34.5967 21.75 34 21.75L19.4286 21.75L24.0768 17.1018L24.077 17.102L24.0853 17.0929C24.4731 16.6649 24.6814 16.1041 24.6672 15.5267C24.653 14.9493 24.4173 14.3995 24.0089 13.9911C23.6005 13.5827 23.0507 13.347 22.4733 13.3328C21.8959 13.3186 21.3351 13.5269 20.9071 13.9147L20.9069 13.9145L20.8982 13.9232L12.4237 22.3977C12.2136 22.6066 12.0436 22.8522 11.922 23.1224L11.9218 23.1223L11.9177 23.1327C11.8082 23.4085 11.7513 23.7022 11.75 23.9989L11.75 23.9993C11.7493 24.2897 11.8066 24.5773 11.9188 24.8451C12.0338 25.1294 12.2057 25.3871 12.424 25.6026C12.4242 25.6027 12.4243 25.6028 12.4244 25.603L20.8982 34.0768L21.075 33.9ZM47.75 4L47.75 44C47.75 44.9946 47.3549 45.9484 46.6516 46.6516C45.9484 47.3549 44.9946 47.75 44 47.75L4.00001 47.75C3.00545 47.75 2.05162 47.3549 1.34836 46.6516C0.645094 45.9484 0.250006 44.9946 0.250006 44L0.250007 4C0.250007 3.00544 0.645096 2.05161 1.34836 1.34835C2.05162 0.645086 3.00545 0.249998 4.00001 0.249998L44 0.25C44.9946 0.25 45.9484 0.645088 46.6517 1.34835C47.3549 2.05161 47.75 3.00544 47.75 4Z" fill="#303030" stroke="#FEFEFE" stroke-width="0.5"/>
</g>
<defs>
<clipPath id="clip0_1605_416">
<rect width="48" height="48" fill="white" transform="translate(48) rotate(90)"/>
</clipPath>
</defs>
</svg>
