<svg width="49" height="48" viewBox="0 0 49 48" fill="none" xmlns="http://www.w3.org/2000/svg">
<g clip-path="url(#clip0_9_367)">
<rect x="7" y="7" width="36" height="33" fill="white"/>
<path d="M24.2278 16.2406L24.2278 16.2406L18.0904 22.25H35.2188C35.6895 22.25 36.142 22.4331 36.4765 22.7608C36.8111 23.0885 37 23.5342 37 24C37 24.4658 36.8111 24.9115 36.4765 25.2393C36.142 25.5669 35.6895 25.75 35.2188 25.75H18.0904L24.2278 31.7594L24.2278 31.7594C24.5628 32.0875 24.7519 32.5337 24.7519 33C24.7519 33.4663 24.5628 33.9125 24.2278 34.2406C23.893 34.5685 23.44 34.7519 22.9688 34.7519C22.4975 34.7519 22.0445 34.5685 21.7097 34.2406L12.5224 25.2408C12.5224 25.2408 12.5224 25.2408 12.5223 25.2407L12.5222 25.2406L12.6971 25.062C12.5545 24.9227 12.4414 24.7571 12.3642 24.5749C12.287 24.3927 12.2473 24.1973 12.2473 24C12.2473 23.8027 12.287 23.6073 12.3642 23.4251C12.4414 23.2429 12.5545 23.0773 12.6971 22.938L24.2278 16.2406ZM24.2278 16.2406C24.5628 15.9125 24.7519 15.4663 24.7519 15C24.7519 14.5337 24.5628 14.0875 24.2278 13.7594C23.893 13.4315 23.44 13.2481 22.9688 13.2481C22.4975 13.2481 22.0445 13.4315 21.7097 13.7594L12.5224 22.7592L24.2278 16.2406ZM48.75 42C48.75 43.5233 48.1323 44.9853 47.0311 46.064C45.9297 47.143 44.4348 47.75 42.875 47.75H6.125C4.56521 47.75 3.07032 47.143 1.96892 46.064C0.867692 44.9853 0.25 43.5233 0.25 42V6C0.25 4.47669 0.867692 3.0147 1.96892 1.93595C3.07031 0.857028 4.56521 0.25 6.125 0.25H42.875C44.4348 0.25 45.9297 0.857028 47.0311 1.93595C48.1323 3.0147 48.75 4.47669 48.75 6V42Z" fill="#303030" stroke="#F1F1F1" stroke-width="0.5"/>
</g>
<defs>
<clipPath id="clip0_9_367">
<rect width="49" height="48" fill="white"/>
</clipPath>
</defs>
</svg>
