<?xml version="1.0" encoding="UTF-8" standalone="no"?>
<!DOCTYPE svg PUBLIC "-//W3C//DTD SVG 20010904//EN"
              "http://www.w3.org/TR/2001/REC-SVG-20010904/DTD/svg10.dtd">

<svg xmlns="http://www.w3.org/2000/svg"
     width="3.86333in" height="2.37in"
     viewBox="0 0 1159 711">
  <path id="Zaznaczenie"
        fill="none" stroke="black" stroke-width="1"
        d="M 601.00,0.57
           C 608.28,-0.75 608.53,0.14 615.00,2.20
             619.92,3.77 623.14,1.99 627.91,5.15
             631.60,7.59 634.84,13.22 637.19,17.00
             637.19,17.00 649.05,36.00 649.05,36.00
             649.05,36.00 665.01,62.00 665.01,62.00
             668.83,72.18 662.54,83.23 651.00,82.21
             646.91,81.85 645.11,80.44 642.00,79.76
             638.40,78.97 634.36,79.78 630.09,76.99
             626.17,74.44 622.13,67.08 619.58,63.00
             619.58,63.00 600.66,33.00 600.66,33.00
             598.64,29.90 594.19,23.20 592.99,20.00
             589.90,11.78 592.73,3.82 601.00,0.57 Z
           M 706.00,4.52
           C 712.48,4.06 711.76,5.40 717.00,6.80
             721.25,7.93 726.32,6.15 731.79,11.34
             736.90,16.20 736.41,22.66 735.20,29.00
             735.20,29.00 726.65,67.00 726.65,67.00
             724.05,78.47 723.25,96.26 707.00,94.89
             702.95,94.55 701.45,93.12 698.00,92.39
             693.50,91.43 689.80,92.79 685.21,88.61
             678.99,82.93 680.27,77.13 681.79,70.00
             681.79,70.00 689.12,37.00 689.12,37.00
             689.12,37.00 692.35,23.00 692.35,23.00
             694.55,13.43 695.01,7.28 706.00,4.52 Z
           M 798.00,44.65
           C 806.57,42.89 807.09,45.36 813.00,46.61
             817.24,47.51 820.34,46.27 824.96,49.65
             831.04,54.10 832.53,62.76 828.30,68.99
             824.89,74.00 817.15,78.00 812.00,81.34
             812.00,81.34 785.00,98.42 785.00,98.42
             781.50,100.60 773.44,106.01 770.00,107.15
             763.81,109.21 761.41,107.10 756.00,105.63
             751.68,104.46 738.29,105.79 737.11,92.00
             736.26,82.14 742.68,78.74 750.00,74.19
             750.00,74.19 798.00,44.65 798.00,44.65 Z
           M 447.00,340.00
           C 437.36,345.49 433.21,346.59 424.00,354.29
             421.62,356.29 418.48,360.07 415.04,358.83
             411.37,357.51 404.36,346.59 402.00,343.00
             391.43,326.93 382.10,303.23 380.17,284.00
             378.07,263.04 379.96,243.97 387.09,224.00
             387.09,224.00 400.14,194.00 400.14,194.00
             400.14,194.00 426.42,135.00 426.42,135.00
             426.42,135.00 446.70,90.00 446.70,90.00
             451.31,79.77 452.79,72.51 466.00,73.04
             474.21,73.37 500.04,80.42 509.00,83.00
             509.00,83.00 530.00,89.05 530.00,89.05
             539.67,93.72 541.60,106.61 532.90,113.35
             530.85,114.94 527.59,116.32 525.00,116.50
             525.00,116.50 499.00,111.29 499.00,111.29
             496.21,110.50 488.91,107.92 486.39,109.19
             484.16,110.33 482.69,114.75 481.72,117.00
             481.72,117.00 472.30,138.00 472.30,138.00
             472.30,138.00 435.00,222.00 435.00,222.00
             435.00,222.00 448.00,226.92 448.00,226.92
             452.91,228.61 468.03,231.17 473.00,230.82
             487.08,229.82 500.93,227.51 514.00,221.99
             531.98,214.38 535.31,207.38 562.00,200.90
             567.54,199.55 588.44,197.03 594.00,197.03
             594.00,197.03 602.00,197.83 602.00,197.83
             618.54,199.41 635.27,201.12 651.00,207.00
             651.00,207.00 655.58,168.00 655.58,168.00
             656.09,164.17 657.78,156.42 654.68,153.72
             652.78,152.07 648.49,151.28 646.00,150.57
             638.05,148.31 622.31,145.53 617.70,138.96
             611.62,130.30 617.28,117.66 628.00,117.04
             638.11,116.47 669.06,125.62 680.00,128.98
             686.31,130.91 693.65,131.49 697.89,137.18
             702.81,143.77 700.07,151.51 700.00,159.00
             700.00,159.00 741.00,148.12 741.00,148.12
             741.00,148.12 797.00,132.85 797.00,132.85
             797.00,132.85 820.00,127.34 820.00,127.34
             824.24,127.37 826.77,129.41 830.00,130.04
             833.09,130.64 837.08,129.55 841.96,132.88
             847.45,136.62 850.51,146.03 853.23,152.00
             853.23,152.00 873.30,197.00 873.30,197.00
             873.30,197.00 886.28,226.00 886.28,226.00
             887.66,229.21 891.46,237.03 891.70,240.00
             892.01,243.73 889.36,254.29 888.00,258.00
             877.61,251.94 878.77,248.77 861.00,240.86
             857.05,239.10 847.34,236.79 845.41,233.85
             845.41,233.85 838.69,219.00 838.69,219.00
             838.69,219.00 822.58,183.00 822.58,183.00
             820.98,179.34 816.61,166.87 812.87,166.06
             810.80,165.62 803.49,167.98 801.00,168.63
             801.00,168.63 774.00,175.87 774.00,175.87
             774.00,175.87 718.00,190.88 718.00,190.88
             713.43,192.08 699.14,195.08 696.60,198.28
             694.53,200.88 695.13,204.83 694.83,208.00
             694.83,208.00 692.72,227.00 692.72,227.00
             692.72,227.00 691.08,244.00 691.08,244.00
             690.87,245.73 690.37,249.09 691.08,250.57
             692.71,253.30 697.33,252.97 700.00,253.00
             706.92,253.07 715.24,254.33 722.00,255.88
             733.09,258.43 745.58,260.70 756.00,265.31
             756.00,265.31 790.00,282.25 790.00,282.25
             797.88,284.83 804.86,285.00 813.00,285.00
             811.51,291.52 807.94,300.65 805.40,307.00
             804.29,309.77 803.20,313.93 799.87,314.60
             792.44,316.08 788.75,307.48 784.82,303.00
             778.49,295.80 765.58,284.46 756.00,282.39
             751.88,281.50 744.97,281.86 741.00,283.24
             737.52,284.45 732.28,287.50 729.00,287.61
             729.00,287.61 718.00,285.35 718.00,285.35
             710.58,284.18 697.23,282.93 690.11,285.35
             684.43,287.15 687.18,292.44 684.83,295.43
             682.95,297.80 674.95,297.00 672.00,297.00
             672.83,287.09 675.98,281.49 676.00,268.00
             676.01,264.76 676.22,260.02 675.37,257.00
             672.38,246.50 657.32,232.84 649.00,225.92
             640.29,218.67 631.86,212.38 620.00,213.04
             614.54,213.35 610.88,215.62 607.63,220.02
             603.62,225.45 604.29,230.49 596.00,229.94
             590.88,229.60 587.19,225.67 583.00,223.06
             576.34,218.93 569.93,216.10 562.00,216.00
             559.04,215.97 554.78,215.83 552.00,216.64
             541.49,219.67 538.51,228.12 538.04,238.00
             537.87,241.52 537.73,249.89 535.40,252.49
             533.62,254.49 527.68,256.14 525.00,256.98
             516.69,259.55 502.67,261.99 494.00,262.00
             494.00,262.00 477.00,262.00 477.00,262.00
             465.75,261.98 447.18,257.92 436.00,255.11
             436.00,255.11 424.00,252.00 424.00,252.00
             424.00,252.00 422.04,272.00 422.04,272.00
             422.58,286.00 425.46,300.23 431.31,313.00
             431.31,313.00 447.00,340.00 447.00,340.00 Z
           M 563.00,101.65
           C 573.08,99.56 574.61,102.71 580.00,103.73
             584.07,104.50 587.32,103.02 591.89,107.23
             600.21,114.87 596.96,128.59 586.00,131.44
             579.56,133.13 576.79,130.40 572.00,129.39
             567.28,128.38 563.34,129.92 558.21,124.79
             550.79,117.37 553.55,105.71 563.00,101.65 Z
           M 883.00,409.00
           C 883.00,409.00 883.00,384.00 883.00,384.00
             883.00,384.00 887.73,340.00 887.73,340.00
             887.73,340.00 909.75,223.00 909.75,223.00
             909.75,223.00 916.28,176.00 916.28,176.00
             916.74,172.20 916.66,160.99 918.82,158.55
             921.63,155.83 928.62,157.26 932.00,158.55
             941.33,161.40 956.17,173.23 960.55,182.00
             964.44,189.78 961.61,200.80 960.00,209.00
             960.00,209.00 948.00,265.00 948.00,265.00
             953.37,259.75 964.91,250.41 973.00,251.62
             977.00,252.22 981.82,255.49 985.00,257.90
             994.07,264.76 1004.60,275.67 1003.68,288.00
             1001.83,312.63 989.03,342.41 989.00,363.00
             989.00,363.00 989.00,372.00 989.00,372.00
             974.47,370.78 955.05,357.71 948.33,345.00
             945.17,339.04 944.91,333.23 943.00,327.00
             943.00,327.00 936.44,342.00 936.44,342.00
             930.53,361.46 929.45,399.06 957.00,401.47
             973.61,402.93 988.21,384.57 995.80,372.00
             1003.70,358.90 1015.68,327.02 1018.38,312.00
             1018.38,312.00 1021.17,284.00 1021.17,284.00
             1021.17,284.00 1024.00,255.00 1024.00,255.00
             1024.05,250.62 1023.39,244.88 1026.65,241.67
             1030.67,237.17 1038.49,239.78 1043.00,241.67
             1053.48,246.87 1068.60,260.81 1069.67,273.00
             1069.99,276.59 1067.97,286.99 1067.20,291.00
             1067.20,291.00 1061.43,322.00 1061.43,322.00
             1058.05,342.17 1055.00,362.53 1055.00,383.00
             1066.43,371.32 1071.44,360.05 1077.05,345.00
             1080.53,335.65 1088.07,311.36 1089.56,302.00
             1089.56,302.00 1091.83,280.00 1091.83,280.00
             1091.83,280.00 1094.09,253.00 1094.09,253.00
             1094.09,253.00 1094.99,244.00 1094.99,244.00
             1095.07,240.40 1094.97,230.31 1097.60,227.85
             1101.26,224.43 1110.03,227.11 1114.00,228.90
             1124.92,233.84 1141.46,247.82 1140.90,261.00
             1140.90,261.00 1131.27,326.00 1131.27,326.00
             1131.27,326.00 1115.58,429.00 1115.58,429.00
             1115.58,429.00 1111.00,452.00 1111.00,452.00
             1118.93,454.26 1134.31,463.33 1142.00,467.72
             1146.30,470.18 1154.52,475.33 1157.26,479.29
             1159.87,483.07 1158.09,487.37 1156.10,491.00
             1152.56,497.41 1141.81,508.45 1134.00,508.66
             1130.30,508.76 1125.18,505.11 1122.00,503.20
             1122.00,503.20 1100.00,491.00 1100.00,491.00
             1094.86,505.83 1085.90,524.08 1075.70,536.00
             1067.19,545.95 1057.10,554.36 1045.00,559.57
             1027.32,567.19 1005.45,571.41 987.00,564.08
             981.29,561.81 977.65,558.95 973.00,555.08
             956.30,541.18 954.76,527.41 955.00,507.00
             955.28,483.35 971.36,458.56 991.00,446.23
             1004.66,437.65 1021.88,433.03 1038.00,433.00
             1054.77,432.97 1053.48,432.89 1070.00,436.00
             1070.00,436.00 1073.00,415.00 1073.00,415.00
             1066.43,421.02 1058.29,427.55 1049.00,427.96
             1034.22,428.61 1020.21,414.06 1018.00,400.00
             1018.00,400.00 999.83,426.00 999.83,426.00
             982.40,445.51 959.60,451.77 938.00,434.71
             930.76,429.00 927.83,426.10 922.00,419.00
             922.00,419.00 922.99,438.00 922.99,438.00
             923.04,440.18 923.27,444.69 921.98,446.44
             919.36,449.97 911.65,448.32 908.00,447.55
             900.59,445.98 889.01,439.85 885.57,432.96
             883.83,429.47 884.14,424.99 883.00,421.00
             882.92,447.87 866.74,471.67 838.00,472.00
             817.00,472.23 813.28,464.60 798.00,454.00
             795.94,459.58 793.16,463.29 789.63,468.00
             781.16,479.27 770.07,488.50 755.00,484.21
             748.82,482.46 742.51,477.46 738.04,472.96
             734.21,469.11 731.46,465.06 729.46,460.00
             721.77,440.49 725.29,406.68 728.27,386.00
             729.25,379.24 732.83,360.46 732.00,355.00
             732.00,355.00 721.42,374.00 721.42,374.00
             717.41,381.11 707.76,400.61 705.36,408.00
             703.37,414.11 702.27,428.25 701.96,435.00
             701.96,435.00 701.00,447.00 701.00,447.00
             701.00,447.00 701.00,475.00 701.00,475.00
             701.03,482.06 705.48,492.35 695.00,492.96
             685.08,493.53 670.58,487.12 665.01,478.82
             663.16,476.07 662.95,472.23 662.00,469.00
             656.19,482.02 645.53,499.12 634.00,507.51
             628.93,511.20 620.42,515.32 614.00,514.66
             608.08,514.05 604.37,511.12 600.00,507.41
             594.39,502.64 593.87,500.92 590.00,495.00
             583.00,510.70 563.67,533.52 544.00,525.85
             540.94,524.66 538.48,522.49 536.00,520.41
             533.22,518.08 530.78,515.98 528.63,513.00
             520.67,501.93 519.80,489.94 518.91,477.00
             518.91,477.00 518.00,467.00 518.00,467.00
             517.46,420.72 529.21,375.02 538.79,330.00
             538.79,330.00 545.92,290.00 545.92,290.00
             545.92,290.00 551.83,247.00 551.83,247.00
             552.22,242.95 551.60,233.63 555.31,231.17
             558.94,228.77 566.32,230.75 570.00,232.34
             579.63,236.49 595.07,249.40 597.47,260.00
             598.47,264.41 597.16,269.56 596.41,274.00
             596.41,274.00 592.20,297.00 592.20,297.00
             592.20,297.00 574.60,379.00 574.60,379.00
             570.26,400.72 560.03,449.78 560.00,470.00
             560.00,470.00 560.00,482.00 560.00,482.00
             573.59,467.75 580.14,450.52 585.72,432.00
             591.84,411.69 595.38,396.96 598.92,376.00
             598.92,376.00 605.08,340.00 605.08,340.00
             605.76,335.85 606.00,328.38 608.70,325.32
             612.27,321.27 619.83,323.39 624.00,325.32
             634.56,330.22 647.50,342.05 649.53,354.00
             650.80,361.46 643.98,382.58 641.87,391.00
             641.87,391.00 629.42,442.00 629.42,442.00
             629.42,442.00 624.00,469.00 624.00,469.00
             635.47,460.79 643.93,445.83 649.42,433.00
             649.42,433.00 664.48,392.00 664.48,392.00
             664.48,392.00 667.84,366.00 667.84,366.00
             667.84,366.00 671.97,327.00 671.97,327.00
             672.16,323.45 672.22,314.22 675.31,312.31
             678.15,310.31 682.99,311.54 686.00,312.31
             697.49,315.86 702.71,322.55 712.00,329.00
             717.89,316.97 734.19,298.75 748.00,296.39
             753.87,295.39 759.62,299.60 764.00,303.02
             774.54,311.24 782.30,320.06 781.99,334.00
             781.99,334.00 777.42,367.00 777.42,367.00
             775.18,381.48 769.02,414.38 769.00,427.00
             769.00,427.00 769.00,438.00 769.00,438.00
             774.87,431.17 783.03,419.53 785.90,411.00
             787.39,406.55 787.44,399.73 790.46,392.00
             790.46,392.00 798.65,375.00 798.65,375.00
             798.65,375.00 809.02,341.00 809.02,341.00
             813.94,325.19 827.75,286.32 834.31,272.00
             836.03,268.24 843.28,253.69 846.38,252.12
             849.23,250.68 855.31,253.95 858.00,255.26
             866.51,259.41 881.85,269.51 884.35,279.00
             886.05,285.48 880.90,291.47 878.32,297.00
             875.46,303.14 871.20,317.23 870.29,324.00
             867.49,344.78 872.36,363.93 877.12,384.00
             877.12,384.00 883.00,409.00 883.00,409.00 Z
           M 652.00,326.00
           C 644.94,324.89 641.61,322.62 636.00,318.35
             629.47,313.37 621.39,306.80 618.22,299.00
             617.27,296.65 615.98,283.75 616.10,281.00
             616.10,281.00 617.00,270.00 617.00,270.00
             617.00,270.00 617.00,244.00 617.00,244.00
             616.99,239.30 615.53,230.87 620.39,228.06
             624.58,225.64 632.74,231.45 636.00,233.90
             643.06,239.21 657.85,251.99 661.00,260.00
             661.99,262.54 662.06,265.31 661.96,268.00
             661.96,268.00 655.00,305.00 655.00,305.00
             655.00,305.00 652.00,326.00 652.00,326.00 Z
           M 210.00,530.00
           C 207.71,539.78 200.83,552.86 196.25,562.00
             179.39,595.63 149.37,631.03 112.00,641.57
             100.47,644.83 92.78,645.13 81.00,645.00
             74.41,644.92 69.21,643.73 63.00,641.67
             54.40,638.80 49.28,636.33 42.00,630.76
             35.02,625.43 26.50,617.17 21.44,610.00
             0.32,580.08 -2.02,537.09 3.42,502.00
             3.42,502.00 12.00,462.00 12.00,462.00
             12.00,462.00 12.00,445.00 12.00,445.00
             12.02,432.47 15.57,416.24 18.63,404.00
             27.84,367.14 49.76,324.66 77.04,298.09
             88.56,286.87 104.56,274.44 120.00,269.36
             125.42,267.57 128.52,267.42 134.00,266.84
             163.20,263.71 187.58,277.41 205.55,300.00
             222.32,321.07 232.96,361.18 233.00,388.00
             233.00,388.00 233.00,420.00 233.00,420.00
             232.98,433.39 230.08,453.58 227.75,467.00
             226.60,473.61 223.10,484.98 224.00,491.00
             224.00,491.00 233.58,458.00 233.58,458.00
             233.58,458.00 247.95,417.00 247.95,417.00
             247.95,417.00 261.27,383.00 261.27,383.00
             261.27,383.00 271.00,366.00 271.00,366.00
             281.35,367.87 293.19,375.41 301.00,382.29
             304.97,385.78 309.35,390.44 309.77,396.00
             310.17,401.27 306.22,406.46 303.97,411.00
             301.82,415.33 299.13,423.25 297.72,428.00
             292.91,444.19 294.20,472.13 300.00,488.00
             300.00,488.00 306.91,474.00 306.91,474.00
             306.91,474.00 323.42,421.00 323.42,421.00
             323.42,421.00 341.58,373.00 341.58,373.00
             343.49,368.54 350.48,354.22 353.61,351.41
             356.88,348.46 362.62,351.72 366.00,353.32
             374.11,357.16 390.40,368.05 392.58,377.00
             394.50,384.87 387.99,391.37 385.06,399.00
             379.20,414.28 377.97,422.86 378.00,439.00
             378.04,461.72 390.79,495.47 391.00,513.00
             391.15,526.39 391.40,534.64 384.88,547.00
             378.70,558.72 367.34,567.78 354.00,569.85
             354.00,569.85 341.00,569.85 341.00,569.85
             326.87,569.83 315.55,560.46 306.00,551.00
             300.98,583.04 261.77,597.36 236.00,579.22
             223.51,570.42 217.01,561.73 213.16,547.00
             213.16,547.00 210.00,530.00 210.00,530.00 Z
           M 36.00,546.00
           C 32.44,560.65 36.35,590.12 48.18,600.47
             56.46,607.71 68.65,608.05 79.00,608.00
             93.49,607.93 106.38,602.75 117.00,592.91
             152.40,560.10 171.96,497.76 179.75,451.00
             181.94,437.86 184.98,415.98 185.00,403.00
             185.00,403.00 185.00,381.00 185.00,381.00
             184.83,367.10 180.73,343.68 175.14,331.00
             172.28,324.52 168.86,317.88 163.00,313.63
             156.02,308.58 149.26,307.99 141.00,308.00
             124.12,308.02 110.54,315.99 98.00,326.59
             74.81,346.18 55.98,386.37 50.00,416.00
             58.53,416.03 62.82,417.29 70.00,422.22
             70.00,422.22 80.99,431.17 80.99,431.17
             84.86,434.76 92.63,444.35 90.82,450.12
             89.64,453.89 79.63,459.64 76.00,462.62
             67.99,469.18 60.12,479.06 54.86,488.00
             53.27,490.70 49.88,496.07 49.57,499.00
             49.28,501.78 51.24,507.27 52.22,510.00
             55.51,519.22 57.78,524.82 63.34,533.00
             65.77,536.57 71.93,542.53 69.35,546.96
             66.26,552.24 53.72,556.39 48.00,554.26
             48.00,554.26 36.00,546.00 36.00,546.00 Z
           M 458.00,352.46
           C 474.56,350.17 487.24,360.75 495.90,374.00
             495.90,374.00 500.95,383.00 500.95,383.00
             504.37,388.46 505.90,389.10 509.22,396.00
             517.28,412.77 517.08,428.97 517.00,447.00
             516.91,466.16 508.90,491.97 500.24,509.00
             492.22,524.78 478.38,542.09 460.00,545.77
             456.80,546.13 452.33,546.04 449.00,545.77
             437.25,545.86 427.85,540.38 419.00,533.08
             401.43,518.59 391.11,493.69 391.00,471.00
             391.00,471.00 391.00,458.00 391.00,458.00
             391.04,433.80 402.05,404.91 415.33,385.00
             425.59,369.62 439.51,356.58 458.00,352.46 Z
           M 831.00,369.00
           C 826.38,375.53 830.39,380.45 833.00,387.00
             836.99,397.02 839.94,405.14 838.00,416.00
             835.79,414.44 833.80,412.88 831.00,412.56
             823.80,411.75 817.03,420.51 816.23,427.00
             814.34,442.31 835.14,444.74 840.59,432.00
             843.01,425.63 842.20,414.66 840.59,408.00
             840.59,408.00 831.00,369.00 831.00,369.00 Z
           M 461.00,394.00
           C 453.25,399.67 448.68,408.23 445.20,417.00
             439.40,431.65 435.19,450.22 435.00,466.00
             434.90,474.92 435.93,497.08 442.64,503.30
             448.56,508.81 458.90,504.34 463.99,499.81
             475.52,489.55 482.33,468.74 485.87,454.00
             489.28,439.77 489.00,429.30 489.00,415.00
             480.91,422.15 483.83,432.29 476.98,435.09
             473.54,436.50 467.54,430.52 465.64,427.95
             462.00,423.02 458.67,409.16 459.10,403.00
             459.31,399.94 460.33,396.98 461.00,394.00 Z
           M 1074.00,414.00
           C 1074.00,414.00 1073.00,414.00 1073.00,414.00
             1073.00,414.00 1074.00,415.00 1074.00,415.00
             1074.00,415.00 1074.00,414.00 1074.00,414.00 Z
           M 465.00,449.00
           C 465.00,449.00 466.00,449.00 466.00,449.00
             466.00,449.00 465.00,450.00 465.00,450.00
             465.00,450.00 465.00,449.00 465.00,449.00 Z
           M 339.00,468.00
           C 339.00,468.00 337.30,474.00 337.30,474.00
             337.30,474.00 345.00,493.00 345.00,493.00
             345.00,493.00 339.00,468.00 339.00,468.00 Z
           M 1058.00,475.00
           C 1036.67,469.81 1002.06,481.67 988.68,499.00
             986.20,502.21 983.90,506.16 982.55,510.00
             980.10,516.93 979.91,530.45 986.13,535.49
             989.75,538.42 996.47,539.14 1001.00,538.96
             1026.18,537.97 1042.39,515.13 1051.42,494.00
             1053.92,488.16 1057.02,481.24 1058.00,475.00 Z
           M 802.00,476.00
           C 808.14,478.56 810.53,481.18 818.00,483.64
             820.96,484.62 826.15,485.19 828.07,487.51
             829.93,489.76 832.72,501.52 833.71,505.00
             833.71,505.00 844.58,546.00 844.58,546.00
             845.74,550.19 847.64,559.73 849.84,562.89
             853.03,567.49 869.21,573.13 875.00,575.77
             875.00,575.77 920.00,595.15 920.00,595.15
             938.70,603.18 954.61,607.74 960.24,630.00
             961.16,633.63 961.04,637.28 961.00,641.00
             960.81,657.02 951.19,668.29 937.00,674.69
             930.42,677.66 918.42,680.36 911.00,682.42
             911.00,682.42 856.00,697.15 856.00,697.15
             856.00,697.15 820.00,706.88 820.00,706.88
             812.46,708.87 807.02,710.90 799.00,711.00
             787.36,711.13 784.04,709.67 773.00,707.54
             750.24,703.16 738.31,680.69 744.43,659.00
             747.60,647.73 754.72,640.21 761.63,631.00
             761.63,631.00 789.13,594.00 789.13,594.00
             789.13,594.00 801.13,578.00 801.13,578.00
             802.89,575.65 806.10,571.83 806.64,569.00
             807.23,565.85 803.46,553.72 802.42,550.00
             802.42,550.00 792.01,511.00 792.01,511.00
             791.27,508.30 787.58,494.70 787.92,493.00
             788.66,489.33 798.98,480.00 802.00,476.00 Z
           M 256.00,484.00
           C 251.66,491.15 255.53,495.13 258.19,502.00
             261.73,511.13 265.38,521.20 263.00,531.00
             254.63,525.13 247.28,527.78 242.92,537.00
             240.35,542.42 240.72,551.41 247.10,554.11
             249.15,554.98 252.77,555.08 255.00,554.96
             266.94,554.27 267.10,542.01 267.00,533.00
             266.85,520.66 258.71,497.48 256.00,484.00 Z
           M 346.00,493.00
           C 346.00,493.00 346.96,505.00 346.96,505.00
             346.96,505.00 346.96,514.00 346.96,514.00
             343.71,512.34 340.86,510.66 337.00,511.24
             327.74,512.64 320.07,527.63 327.65,535.57
             329.21,537.21 330.87,537.69 333.00,538.18
             340.34,539.85 345.97,537.15 348.86,530.00
             353.70,518.00 348.40,504.91 346.00,493.00 Z
           M 222.00,495.00
           C 222.00,495.00 221.00,495.00 221.00,495.00
             221.00,495.00 222.00,496.00 222.00,496.00
             222.00,496.00 222.00,495.00 222.00,495.00 Z
           M 501.00,533.00
           C 506.11,537.26 510.78,544.51 514.71,550.00
             514.71,550.00 531.13,572.00 531.13,572.00
             535.99,578.48 547.02,592.59 550.37,599.00
             564.25,625.57 546.24,658.48 515.00,656.49
             500.05,655.53 475.94,648.58 461.00,644.42
             461.00,644.42 387.00,624.63 387.00,624.63
             370.29,620.33 353.02,617.33 342.75,602.00
             338.82,596.14 337.16,591.01 337.00,584.00
             343.52,584.00 355.11,584.53 361.00,583.10
             364.74,582.19 373.81,577.63 375.94,577.99
             380.75,578.79 378.76,584.32 380.89,587.96
             382.95,591.47 387.27,593.57 391.00,594.78
             391.00,594.78 416.00,601.42 416.00,601.42
             416.00,601.42 482.00,619.15 482.00,619.15
             489.96,621.31 508.85,629.73 511.67,617.00
             513.03,610.85 506.36,603.71 503.00,599.00
             503.00,599.00 483.63,573.00 483.63,573.00
             479.81,567.91 475.32,562.97 473.00,557.00
             485.05,550.14 493.34,545.26 501.00,533.00 Z
           M 786.75,679.00
           C 786.75,679.00 841.00,664.85 841.00,664.85
             841.00,664.85 878.00,654.85 878.00,654.85
             878.00,654.85 907.00,646.97 907.00,646.97
             911.37,645.57 916.43,643.75 918.07,638.98
             920.52,631.85 913.63,626.69 908.00,624.23
             908.00,624.23 860.00,603.58 860.00,603.58
             856.36,602.03 844.29,596.04 841.04,596.81
             837.50,597.64 832.17,605.94 829.87,609.00
             829.87,609.00 805.37,642.00 805.37,642.00
             801.56,647.08 787.87,664.25 786.75,669.00
             785.55,672.33 786.08,675.76 786.75,679.00 Z" />
</svg>
