<svg viewBox="0 0 25 25" fill="none" xmlns="http://www.w3.org/2000/svg"><path d="M12.374 8.37a4.01 4.01 0 0 0-4.002 4.002 4.01 4.01 0 0 0 4.002 4.002 4.01 4.01 0 0 0 4.001-4.002 4.01 4.01 0 0 0-4.001-4.001Zm12.002 4.002c0-1.657.015-3.299-.078-4.953-.093-1.921-.532-3.626-1.937-5.031C20.953.98 19.251.544 17.331.45c-1.658-.093-3.3-.078-4.954-.078-1.657 0-3.3-.015-4.953.078-1.922.093-3.627.532-5.032 1.937C.984 3.796.55 5.498.456 7.419c-.093 1.657-.078 3.3-.078 4.953 0 1.654-.015 3.3.078 4.954.093 1.921.531 3.626 1.936 5.031 1.408 1.408 3.11 1.843 5.032 1.936 1.657.093 3.299.078 4.953.078 1.657 0 3.299.015 4.953-.078 1.921-.093 3.627-.531 5.031-1.936 1.408-1.408 1.844-3.11 1.937-5.031.096-1.655.078-3.297.078-4.954ZM12.374 18.53a6.148 6.148 0 0 1-6.157-6.157 6.148 6.148 0 0 1 6.157-6.157 6.148 6.148 0 0 1 6.157 6.157 6.148 6.148 0 0 1-6.157 6.157Zm6.41-11.128a1.436 1.436 0 0 1-1.439-1.438c0-.796.643-1.438 1.438-1.438a1.436 1.436 0 0 1 1.329 1.989 1.436 1.436 0 0 1-1.329.887Z" fill="#000"/></svg>