<svg viewBox="0 0 24 24" fill="none" xmlns="http://www.w3.org/2000/svg"><path fill-rule="evenodd" clip-rule="evenodd" d="M.042 2.047A2.005 2.005 0 0 1 2.047.042h19.987a2.004 2.004 0 0 1 2.008 2.005v19.988a2.005 2.005 0 0 1-2.007 2.007H2.047a2.006 2.006 0 0 1-2.005-2.006V2.046Zm9.5 7.145h3.25v1.632c.468-.938 1.668-1.782 3.472-1.782 3.457 0 4.276 1.869 4.276 5.297v6.351H17.04v-5.57c0-1.952-.469-3.054-1.66-3.054-1.653 0-2.34 1.188-2.34 3.054v5.57h-3.5V9.193Zm-6 11.349H7.04v-11.5h-3.5v11.5Zm4-15.25a2.25 2.25 0 1 1-4.5.1 2.25 2.25 0 0 1 4.5-.1Z" fill="#000"/></svg>