<svg xmlns="http://www.w3.org/2000/svg" width="370.88" height="2.37in" viewBox="0 0 1159 711"><path fill="none" stroke="#000" d="M601 .57c7.28-1.32 7.53-.43 14 1.63 4.92 1.57 8.14-.21 12.91 2.95 3.69 2.44 6.93 8.07 9.28 11.85l11.86 19 15.96 26c3.82 10.18-2.47 21.23-14.01 20.21-4.09-.36-5.89-1.77-9-2.45-3.6-.79-7.64.02-11.91-2.77-3.92-2.55-7.96-9.91-10.51-13.99l-18.92-30c-2.02-3.1-6.47-9.8-7.67-13-3.09-8.22-.26-16.18 8.01-19.43Zm105 3.95c6.48-.46 5.76.88 11 2.28 4.25 1.13 9.32-.65 14.79 4.54 5.11 4.86 4.62 11.32 3.41 17.66l-8.55 38c-2.6 11.47-3.4 29.26-19.65 27.89-4.05-.34-5.55-1.77-9-2.5-4.5-.96-8.2.4-12.79-3.78-6.22-5.68-4.94-11.48-3.42-18.61l7.33-33 3.23-14c2.2-9.57 2.66-15.72 13.65-18.48Zm92 40.13c8.57-1.76 9.09.71 15 1.96 4.24.9 7.34-.34 11.96 3.04 6.08 4.45 7.57 13.11 3.34 19.34C824.89 74 817.15 78 812 81.34l-27 17.08c-3.5 2.18-11.56 7.59-15 8.73-6.19 2.06-8.59-.05-14-1.52-4.32-1.17-17.71.16-18.89-13.63-.85-9.86 5.57-13.26 12.89-17.81l48-29.54ZM447 340c-9.64 5.49-13.79 6.59-23 14.29-2.38 2-5.52 5.78-8.96 4.54-3.67-1.32-10.68-12.24-13.04-15.83-10.57-16.07-19.9-39.77-21.83-59-2.1-20.96-.21-40.03 6.92-60l13.05-30 26.28-59 20.28-45c4.61-10.23 6.09-17.49 19.3-16.96 8.21.33 34.04 7.38 43 9.96l21 6.05c9.67 4.67 11.6 17.56 2.9 24.3-2.05 1.59-5.31 2.97-7.9 3.15l-26-5.21c-2.79-.79-10.09-3.37-12.61-2.1-2.23 1.14-3.7 5.56-4.67 7.81l-9.42 21-37.3 84 13 4.92c4.91 1.69 20.03 4.25 25 3.9 14.08-1 27.93-3.31 41-8.83 17.98-7.61 21.31-14.61 48-21.09 5.54-1.35 26.44-3.87 32-3.87l8 .8c16.54 1.58 33.27 3.29 49 9.17l4.58-39c.51-3.83 2.2-11.58-.9-14.28-1.9-1.65-6.19-2.44-8.68-3.15-7.95-2.26-23.69-5.04-28.3-11.61-6.08-8.66-.42-21.3 10.3-21.92 10.11-.57 41.06 8.58 52 11.94 6.31 1.93 13.65 2.51 17.89 8.2 4.92 6.59 2.18 14.33 2.11 21.82l41-10.88 56-15.27 23-5.51c4.24.03 6.77 2.07 10 2.7 3.09.6 7.08-.49 11.96 2.84 5.49 3.74 8.55 13.15 11.27 19.12l20.07 45 12.98 29c1.38 3.21 5.18 11.03 5.42 14 .31 3.73-2.34 14.29-3.7 18-10.39-6.06-9.23-9.23-27-17.14-3.95-1.76-13.66-4.07-15.59-7.01L838.69 219l-16.11-36c-1.6-3.66-5.97-16.13-9.71-16.94-2.07-.44-9.38 1.92-11.87 2.57l-27 7.24-56 15.01c-4.57 1.2-18.86 4.2-21.4 7.4-2.07 2.6-1.47 6.55-1.77 9.72l-2.11 19-1.64 17c-.21 1.73-.71 5.09 0 6.57 1.63 2.73 6.25 2.4 8.92 2.43 6.92.07 15.24 1.33 22 2.88 11.09 2.55 23.58 4.82 34 9.43l34 16.94c7.88 2.58 14.86 2.75 23 2.75-1.49 6.52-5.06 15.65-7.6 22-1.11 2.77-2.2 6.93-5.53 7.6-7.43 1.48-11.12-7.12-15.05-11.6-6.33-7.2-19.24-18.54-28.82-20.61-4.12-.89-11.03-.53-15 .85-3.48 1.21-8.72 4.26-12 4.37l-11-2.26c-7.42-1.17-20.77-2.42-27.89 0-5.68 1.8-2.93 7.09-5.28 10.08-1.88 2.37-9.88 1.57-12.83 1.57.83-9.91 3.98-15.51 4-29 .01-3.24.22-7.98-.63-11-2.99-10.5-18.05-24.16-26.37-31.08-8.71-7.25-17.14-13.54-29-12.88-5.46.31-9.12 2.58-12.37 6.98-4.01 5.43-3.34 10.47-11.63 9.92-5.12-.34-8.81-4.27-13-6.88-6.66-4.13-13.07-6.96-21-7.06-2.96-.03-7.22-.17-10 .64-10.51 3.03-13.49 11.48-13.96 21.36-.17 3.52-.31 11.89-2.64 14.49-1.78 2-7.72 3.65-10.4 4.49-8.31 2.57-22.33 5.01-31 5.02h-17c-11.25-.02-29.82-4.08-41-6.89L424 252l-1.96 20c.54 14 3.42 28.23 9.27 41L447 340Zm116-238.35c10.08-2.09 11.61 1.06 17 2.08 4.07.77 7.32-.71 11.89 3.5 8.32 7.64 5.07 21.36-5.89 24.21-6.44 1.69-9.21-1.04-14-2.05-4.72-1.01-8.66.53-13.79-4.6-7.42-7.42-4.66-19.08 4.79-23.14ZM883 409v-25l4.73-44 22.02-117 6.53-47c.46-3.8.38-15.01 2.54-17.45 2.81-2.72 9.8-1.29 13.18 0 9.33 2.85 24.17 14.68 28.55 23.45 3.89 7.78 1.06 18.8-.55 27l-12 56c5.37-5.25 16.91-14.59 25-13.38 4 .6 8.82 3.87 12 6.28 9.07 6.86 19.6 17.77 18.68 30.1-1.85 24.63-14.65 54.41-14.68 75v9c-14.53-1.22-33.95-14.29-40.67-27-3.16-5.96-3.42-11.77-5.33-18l-6.56 15c-5.91 19.46-6.99 57.06 20.56 59.47 16.61 1.46 31.21-16.9 38.8-29.47 7.9-13.1 19.88-44.98 22.58-60l2.79-28 2.83-29c.05-4.38-.61-10.12 2.65-13.33 4.02-4.5 11.84-1.89 16.35 0 10.48 5.2 25.6 19.14 26.67 31.33.32 3.59-1.7 13.99-2.47 18l-5.77 31c-3.38 20.17-6.43 40.53-6.43 61 11.43-11.68 16.44-22.95 22.05-38 3.48-9.35 11.02-33.64 12.51-43l2.27-22 2.26-27 .9-9c.08-3.6-.02-13.69 2.61-16.15 3.66-3.42 12.43-.74 16.4 1.05 10.92 4.94 27.46 18.92 26.9 32.1l-9.63 65-15.69 103-4.58 23c7.93 2.26 23.31 11.33 31 15.72 4.3 2.46 12.52 7.61 15.26 11.57 2.61 3.78.83 8.08-1.16 11.71-3.54 6.41-14.29 17.45-22.1 17.66-3.7.1-8.82-3.55-12-5.46l-22-12.2c-5.14 14.83-14.1 33.08-24.3 45-8.51 9.95-18.6 18.36-30.7 23.57-17.68 7.62-39.55 11.84-58 4.51-5.71-2.27-9.35-5.13-14-9-16.7-13.9-18.24-27.67-18-48.08.28-23.65 16.36-48.44 36-60.77 13.66-8.58 30.88-13.2 47-13.23 16.77-.03 15.48-.11 32 3l3-21c-6.57 6.02-14.71 12.55-24 12.96-14.78.65-28.79-13.9-31-27.96l-18.17 26c-17.43 19.51-40.23 25.77-61.83 8.71-7.24-5.71-10.17-8.61-16-15.71l.99 19c.05 2.18.28 6.69-1.01 8.44-2.62 3.53-10.33 1.88-13.98 1.11-7.41-1.57-18.99-7.7-22.43-14.59-1.74-3.49-1.43-7.97-2.57-11.96-.08 26.87-16.26 50.67-45 51-21 .23-24.72-7.4-40-18-2.06 5.58-4.84 9.29-8.37 14-8.47 11.27-19.56 20.5-34.63 16.21-6.18-1.75-12.49-6.75-16.96-11.25-3.83-3.85-6.58-7.9-8.58-12.96-7.69-19.51-4.17-53.32-1.19-74 .98-6.76 4.56-25.54 3.73-31l-10.58 19c-4.01 7.11-13.66 26.61-16.06 34-1.99 6.11-3.09 20.25-3.4 27l-.96 12v28c.03 7.06 4.48 17.35-6 17.96-9.92.57-24.42-5.84-29.99-14.14-1.85-2.75-2.06-6.59-3.01-9.82-5.81 13.02-16.47 30.12-28 38.51-5.07 3.69-13.58 7.81-20 7.15-5.92-.61-9.63-3.54-14-7.25-5.61-4.77-6.13-6.49-10-12.41-7 15.7-26.33 38.52-46 30.85-3.06-1.19-5.52-3.36-8-5.44-2.78-2.33-5.22-4.43-7.37-7.41-7.96-11.07-8.83-23.06-9.72-36l-.91-10c-.54-46.28 11.21-91.98 20.79-137l7.13-40 5.91-43c.39-4.05-.23-13.37 3.48-15.83 3.63-2.4 11.01-.42 14.69 1.17 9.63 4.15 25.07 17.06 27.47 27.66 1 4.41-.31 9.56-1.06 14l-4.21 23-17.6 82c-4.34 21.72-14.57 70.78-14.6 91v12c13.59-14.25 20.14-31.48 25.72-50 6.12-20.31 9.66-35.04 13.2-56l6.16-36c.68-4.15.92-11.62 3.62-14.68 3.57-4.05 11.13-1.93 15.3 0 10.56 4.9 23.5 16.73 25.53 28.68 1.27 7.46-5.55 28.58-7.66 37l-12.45 51-5.42 27c11.47-8.21 19.93-23.17 25.42-36l15.06-41 3.36-26 4.13-39c.19-3.55.25-12.78 3.34-14.69 2.84-2 7.68-.77 10.69 0 11.49 3.55 16.71 10.24 26 16.69 5.89-12.03 22.19-30.25 36-32.61 5.87-1 11.62 3.21 16 6.63 10.54 8.22 18.3 17.04 17.99 30.98l-4.57 33c-2.24 14.48-8.4 47.38-8.42 60v11c5.87-6.83 14.03-18.47 16.9-27 1.49-4.45 1.54-11.27 4.56-19l8.19-17 10.37-34c4.92-15.81 18.73-54.68 25.29-69 1.72-3.76 8.97-18.31 12.07-19.88 2.85-1.44 8.93 1.83 11.62 3.14 8.51 4.15 23.85 14.25 26.35 23.74 1.7 6.48-3.45 12.47-6.03 18-2.86 6.14-7.12 20.23-8.03 27-2.8 20.78 2.07 39.93 6.83 60l5.88 25Zm-231-83c-7.06-1.11-10.39-3.38-16-7.65-6.53-4.98-14.61-11.55-17.78-19.35-.95-2.35-2.24-15.25-2.12-18l.9-11v-26c-.01-4.7-1.47-13.13 3.39-15.94 4.19-2.42 12.35 3.39 15.61 5.84 7.06 5.31 21.85 18.09 25 26.1.99 2.54 1.06 5.31.96 8L655 305l-3 21ZM210 530c-2.29 9.78-9.17 22.86-13.75 32-16.86 33.63-46.88 69.03-84.25 79.57-11.53 3.26-19.22 3.56-31 3.43-6.59-.08-11.79-1.27-18-3.33-8.6-2.87-13.72-5.34-21-10.91-6.98-5.33-15.5-13.59-20.56-20.76C.32 580.08-2.02 537.09 3.42 502L12 462v-17c.02-12.53 3.57-28.76 6.63-41 9.21-36.86 31.13-79.34 58.41-105.91 11.52-11.22 27.52-23.65 42.96-28.73 5.42-1.79 8.52-1.94 14-2.52 29.2-3.13 53.58 10.57 71.55 33.16 16.77 21.07 27.41 61.18 27.45 88v32c-.02 13.39-2.92 33.58-5.25 47-1.15 6.61-4.65 17.98-3.75 24l9.58-33 14.37-41 13.32-34 9.73-17c10.35 1.87 22.19 9.41 30 16.29 3.97 3.49 8.35 8.15 8.77 13.71.4 5.27-3.55 10.46-5.8 15-2.15 4.33-4.84 12.25-6.25 17-4.81 16.19-3.52 44.13 2.28 60l6.91-14 16.51-53 18.16-48c1.91-4.46 8.9-18.78 12.03-21.59 3.27-2.95 9.01.31 12.39 1.91 8.11 3.84 24.4 14.73 26.58 23.68 1.92 7.87-4.59 14.37-7.52 22-5.86 15.28-7.09 23.86-7.06 40 .04 22.72 12.79 56.47 13 74 .15 13.39.4 21.64-6.12 34-6.18 11.72-17.54 20.78-30.88 22.85h-13c-14.13-.02-25.45-9.39-35-18.85-5.02 32.04-44.23 46.36-70 28.22-12.49-8.8-18.99-17.49-22.84-32.22L210 530ZM36 546c-3.56 14.65.35 44.12 12.18 54.47 8.28 7.24 20.47 7.58 30.82 7.53 14.49-.07 27.38-5.25 38-15.09 35.4-32.81 54.96-95.15 62.75-141.91 2.19-13.14 5.23-35.02 5.25-48v-22c-.17-13.9-4.27-37.32-9.86-50-2.86-6.48-6.28-13.12-12.14-17.37-6.98-5.05-13.74-5.64-22-5.63-16.88.02-30.46 7.99-43 18.59-23.19 19.59-42.02 59.78-48 89.41 8.53.03 12.82 1.29 20 6.22l10.99 8.95c3.87 3.59 11.64 13.18 9.83 18.95-1.18 3.77-11.19 9.52-14.82 12.5-8.01 6.56-15.88 16.44-21.14 25.38-1.59 2.7-4.98 8.07-5.29 11-.29 2.78 1.67 8.27 2.65 11 3.29 9.22 5.56 14.82 11.12 23 2.43 3.57 8.59 9.53 6.01 13.96-3.09 5.28-15.63 9.43-21.35 7.3L36 546Zm422-193.54c16.56-2.29 29.24 8.29 37.9 21.54l5.05 9c3.42 5.46 4.95 6.1 8.27 13 8.06 16.77 7.86 32.97 7.78 51-.09 19.16-8.1 44.97-16.76 62-8.02 15.78-21.86 33.09-40.24 36.77-3.2.36-7.67.27-11 0-11.75.09-21.15-5.39-30-12.69-17.57-14.49-27.89-39.39-28-62.08v-13c.04-24.2 11.05-53.09 24.33-73 10.26-15.38 24.18-28.42 42.67-32.54ZM831 369c-4.62 6.53-.61 11.45 2 18 3.99 10.02 6.94 18.14 5 29-2.21-1.56-4.2-3.12-7-3.44-7.2-.81-13.97 7.95-14.77 14.44-1.89 15.31 18.91 17.74 24.36 5 2.42-6.37 1.61-17.34 0-24L831 369Zm-370 25c-7.75 5.67-12.32 14.23-15.8 23-5.8 14.65-10.01 33.22-10.2 49-.1 8.92.93 31.08 7.64 37.3 5.92 5.51 16.26 1.04 21.35-3.49 11.53-10.26 18.34-31.07 21.88-45.81 3.41-14.23 3.13-24.7 3.13-39-8.09 7.15-5.17 17.29-12.02 20.09-3.44 1.41-9.44-4.57-11.34-7.14-3.64-4.93-6.97-18.79-6.54-24.95.21-3.06 1.23-6.02 1.9-9Zm613 20h-1l1 1v-1Zm-609 35h1l-1 1v-1Zm-126 19-1.7 6 7.7 19-6-25Zm719 7c-21.33-5.19-55.94 6.67-69.32 24-2.48 3.21-4.78 7.16-6.13 11-2.45 6.93-2.64 20.45 3.58 25.49 3.62 2.93 10.34 3.65 14.87 3.47 25.18-.99 41.39-23.83 50.42-44.96 2.5-5.84 5.6-12.76 6.58-19Zm-256 1c6.14 2.56 8.53 5.18 16 7.64 2.96.98 8.15 1.55 10.07 3.87 1.86 2.25 4.65 14.01 5.64 17.49l10.87 41c1.16 4.19 3.06 13.73 5.26 16.89 3.19 4.6 19.37 10.24 25.16 12.88l45 19.38c18.7 8.03 34.61 12.59 40.24 34.85.92 3.63.8 7.28.76 11-.19 16.02-9.81 27.29-24 33.69-6.58 2.97-18.58 5.67-26 7.73l-55 14.73-36 9.73c-7.54 1.99-12.98 4.02-21 4.12-11.64.13-14.96-1.33-26-3.46-22.76-4.38-34.69-26.85-28.57-48.54 3.17-11.27 10.29-18.79 17.2-28l27.5-37 12-16c1.76-2.35 4.97-6.17 5.51-9 .59-3.15-3.18-15.28-4.22-19l-10.41-39c-.74-2.7-4.43-16.3-4.09-18 .74-3.67 11.06-13 14.08-17Zm-546 8c-4.34 7.15-.47 11.13 2.19 18 3.54 9.13 7.19 19.2 4.81 29-8.37-5.87-15.72-3.22-20.08 6-2.57 5.42-2.2 14.41 4.18 17.11 2.05.87 5.67.97 7.9.85 11.94-.69 12.1-12.95 12-21.96-.15-12.34-8.29-35.52-11-49Zm90 9 .96 12v9c-3.25-1.66-6.1-3.34-9.96-2.76-9.26 1.4-16.93 16.39-9.35 24.33 1.56 1.64 3.22 2.12 5.35 2.61 7.34 1.67 12.97-1.03 15.86-8.18 4.84-12-.46-25.09-2.86-37Zm-124 2h-1l1 1v-1Zm279 38c5.11 4.26 9.78 11.51 13.71 17l16.42 22c4.86 6.48 15.89 20.59 19.24 27 13.88 26.57-4.13 59.48-35.37 57.49-14.95-.96-39.06-7.91-54-12.07l-74-19.79c-16.71-4.3-33.98-7.3-44.25-22.63-3.93-5.86-5.59-10.99-5.75-18 6.52 0 18.11.53 24-.9 3.74-.91 12.81-5.47 14.94-5.11 4.81.8 2.82 6.33 4.95 9.97 2.06 3.51 6.38 5.61 10.11 6.82l25 6.64 66 17.73c7.96 2.16 26.85 10.58 29.67-2.15 1.36-6.15-5.31-13.29-8.67-18l-19.37-26c-3.82-5.09-8.31-10.03-10.63-16 12.05-6.86 20.34-11.74 28-24Zm285.75 146L841 664.85l37-10 29-7.88c4.37-1.4 9.43-3.22 11.07-7.99 2.45-7.13-4.44-12.29-10.07-14.75l-48-20.65c-3.64-1.55-15.71-7.54-18.96-6.77-3.54.83-8.87 9.13-11.17 12.19l-24.5 33c-3.81 5.08-17.5 22.25-18.62 27-1.2 3.33-.67 6.76 0 10Z"/></svg>