<svg width="32" height="27" viewBox="0 0 32 27" fill="none" xmlns="http://www.w3.org/2000/svg"><path d="M29.156 22.696c2.988-3.243 2.687-7.407 2.677-7.454V2.575A1.583 1.583 0 0 0 30.25.992h-9.5a3.17 3.17 0 0 0-3.167 3.166v11.084a1.583 1.583 0 0 0 1.584 1.583h4.873a4.577 4.577 0 0 1-.68 2.21c-.803 1.269-2.319 2.135-4.505 2.572l-1.272.253v4.465h1.584c4.406 0 7.767-1.22 9.989-3.629Zm-17.428 0c2.99-3.243 2.687-7.407 2.678-7.454V2.575A1.583 1.583 0 0 0 12.822.992h-9.5A3.17 3.17 0 0 0 .156 4.158v11.084a1.583 1.583 0 0 0 1.583 1.583h4.873a4.576 4.576 0 0 1-.679 2.21c-.804 1.269-2.32 2.135-4.506 2.572l-1.271.253v4.465h1.583c4.406 0 7.768-1.22 9.99-3.629Z" fill="#303030" width="100%" height="100%"/></svg>