<svg width="24" height="24" viewBox="0 0 24 24" fill="none" xmlns="http://www.w3.org/2000/svg">
<path d="M19.4971 9.74857C19.4971 11.8998 18.7988 13.887 17.6224 15.4993L23.5559 21.4375C24.1418 22.0233 24.1418 22.9748 23.5559 23.5606C22.9701 24.1465 22.0186 24.1465 21.4328 23.5606L15.4993 17.6224C13.887 18.8035 11.8998 19.4971 9.74857 19.4971C4.36342 19.4971 0 15.1337 0 9.74857C0 4.36342 4.36342 0 9.74857 0C15.1337 0 19.4971 4.36342 19.4971 9.74857ZM9.74857 16.4976C13.4746 16.4976 16.4976 13.4746 16.4976 9.74857C16.4976 6.02256 13.4746 2.99956 9.74857 2.99956C6.02256 2.99956 2.99956 6.02256 2.99956 9.74857C2.99956 13.4746 6.02256 16.4976 9.74857 16.4976Z" fill="#FEFEFE"/>
</svg>
