<svg width="24" height="25" fill="none" xmlns="http://www.w3.org/2000/svg"><path d="m8.789 19.414-1.215 1.208a2.721 2.721 0 0 1-3.818 0 2.642 2.642 0 0 1 0-3.756l4.47-4.433c.926-.92 2.668-2.272 3.939-1.012a1.488 1.488 0 1 0 2.096-2.11c-2.157-2.143-5.35-1.747-8.129 1.012l-4.47 4.434A5.58 5.58 0 0 0 0 18.744a5.58 5.58 0 0 0 1.662 3.987 5.668 5.668 0 0 0 4.004 1.644 5.66 5.66 0 0 0 4.003-1.644l1.216-1.208a1.483 1.483 0 0 0-1.042-2.538 1.492 1.492 0 0 0-1.054.43ZM22.337 2.188c-2.321-2.3-5.564-2.425-7.709-.295l-1.514 1.503a1.486 1.486 0 1 0 2.095 2.109l1.515-1.502c1.11-1.104 2.566-.646 3.518.296.505.502.784 1.168.784 1.878s-.28 1.375-.784 1.876l-4.77 4.731c-2.18 2.162-3.204 1.15-3.64.716a1.486 1.486 0 1 0-2.094 2.109c1.002.993 2.145 1.485 3.342 1.485 1.466 0 3.015-.738 4.49-2.2l4.77-4.73A5.598 5.598 0 0 0 24 6.177a5.59 5.59 0 0 0-1.663-3.989Z" fill="#303030"/></svg>