<svg viewBox="0 0 24 20" fill="none" xmlns="http://www.w3.org/2000/svg"><path d="M24.913 2.924a9.86 9.86 0 0 1-2.827.774A4.936 4.936 0 0 0 24.25.974a9.83 9.83 0 0 1-3.126 1.194 4.926 4.926 0 0 0-8.39 4.492 13.983 13.983 0 0 1-10.15-5.145 4.922 4.922 0 0 0-.666 2.475 4.926 4.926 0 0 0 2.19 4.1 4.912 4.912 0 0 1-2.23-.617v.063a4.925 4.925 0 0 0 3.95 4.829 4.96 4.96 0 0 1-2.224.084 4.927 4.927 0 0 0 4.6 3.419 9.881 9.881 0 0 1-6.116 2.108c-.392 0-.785-.023-1.175-.068A13.926 13.926 0 0 0 8.46 20.12c9.058 0 14.01-7.503 14.01-14.01 0-.21-.005-.424-.014-.636a10.01 10.01 0 0 0 2.455-2.547l.002-.003Z" fill="#000"/></svg>