<svg viewBox="0 0 24 17" fill="none" xmlns="http://www.w3.org/2000/svg"><path d="M23.496 2.668a2.786 2.786 0 0 0-.766-1.27 3.05 3.05 0 0 0-1.338-.742c-1.877-.495-9.4-.495-9.4-.495a76.614 76.614 0 0 0-9.389.47c-.502.14-.961.4-1.338.76-.37.356-.638.795-.778 1.276A29.011 29.011 0 0 0 0 8.16c-.012 1.841.151 3.68.488 5.494.137.479.404.915.775 1.268s.833.608 1.341.743c1.903.494 9.389.494 9.389.494 3.14.036 6.28-.12 9.4-.47.502-.13.963-.385 1.338-.742a2.78 2.78 0 0 0 .765-1.27c.345-1.81.513-3.65.501-5.494a26.53 26.53 0 0 0-.5-5.516v.001ZM9.6 11.584V4.738l6.26 3.423-6.26 3.423Z" fill="#000"/></svg>